<svg width="32" height="32" viewBox="0 0 32 32" fill="none" xmlns="http://www.w3.org/2000/svg">
  <path d="M16 2.66669C8.63621 2.66669 2.66668 8.63622 2.66668 16C2.66668 23.3638 8.63621 29.3334 16 29.3334C23.3638 29.3334 29.3333 23.3638 29.3333 16C29.3333 8.63622 23.3638 2.66669 16 2.66669ZM22.8247 11.3334C22.5357 14.1847 21.4288 20.0359 20.8645 22.6741C20.6183 23.8397 20.1349 24.2138 19.6744 24.2514C18.6705 24.3334 17.9091 23.5801 16.9551 22.9334C15.4547 21.9334 14.6151 21.3001 13.1614 20.3201C11.4847 19.1934 12.5752 18.5734 13.5447 17.5734C13.7909 17.3201 18.0336 13.4401 18.1198 13.0801C18.1305 13.0308 18.1305 12.8801 18.0443 12.8001C17.9581 12.7201 17.8289 12.7467 17.7358 12.7667C17.6012 12.7934 15.5132 14.1847 11.4847 16.9334C10.8666 17.3601 10.3091 17.5667 9.81217 17.5601C9.26166 17.5534 8.20332 17.2534 7.41793 16.9934C6.45043 16.6801 5.68621 16.5134 5.76043 15.9734C5.79959 15.6934 6.18121 15.4067 6.90527 15.1134C11.2385 13.1934 14.1517 11.9334 15.6521 11.3334C20.0183 9.60002 20.9153 9.28669 21.4985 9.28669C21.6209 9.28669 21.9099 9.31335 22.0891 9.46002C22.2337 9.58002 22.2729 9.74002 22.2868 9.85335C22.3076 9.94002 22.3284 10.1601 22.3145 10.3334C22.2937 10.6401 22.8937 10.6667 22.8247 11.3334Z" fill="url(#paint0_linear_telegram)"/>
  <defs>
    <linearGradient id="paint0_linear_telegram" x1="2.66668" y1="16" x2="29.3333" y2="16" gradientUnits="userSpaceOnUse">
      <stop stop-color="#9B4BFF"/>
      <stop offset="1" stop-color="#4B83FF"/>
    </linearGradient>
  </defs>
</svg> 