<svg width="32" height="32" viewBox="0 0 32 32" fill="none" xmlns="http://www.w3.org/2000/svg">
  <path d="M29.3333 9.60002C29.3333 9.60002 29.0666 7.80002 28.2666 7.00002C27.2666 5.93335 26.1333 5.93335 25.6 5.86669C21.7333 5.60002 16 5.60002 16 5.60002C16 5.60002 10.2666 5.60002 6.4 5.86669C5.86666 5.93335 4.73333 5.93335 3.73333 7.00002C2.93333 7.80002 2.66666 9.60002 2.66666 9.60002C2.66666 9.60002 2.4 11.7334 2.4 13.8667V15.8667C2.4 18 2.66666 20.1334 2.66666 20.1334C2.66666 20.1334 2.93333 21.9334 3.73333 22.7334C4.73333 23.8 6.06666 23.7334 6.66666 23.8667C8.93333 24.1334 16 24.1334 16 24.1334C16 24.1334 21.7333 24.1334 25.6 23.8667C26.1333 23.8 27.2666 23.8 28.2666 22.7334C29.0666 21.9334 29.3333 20.1334 29.3333 20.1334C29.3333 20.1334 29.6 18 29.6 15.8667V13.8667C29.6 11.7334 29.3333 9.60002 29.3333 9.60002ZM13.3333 18.6667V10.6667L20.4 14.6667L13.3333 18.6667Z" fill="url(#paint0_linear_youtube)"/>
  <defs>
    <linearGradient id="paint0_linear_youtube" x1="2.4" y1="14.8667" x2="29.6" y2="14.8667" gradientUnits="userSpaceOnUse">
      <stop stop-color="#9B4BFF"/>
      <stop offset="1" stop-color="#4B83FF"/>
    </linearGradient>
  </defs>
</svg> 